<svg xmlns="http://www.w3.org/2000/svg" width="57" height="18" viewBox="0 0 57 18"><defs><radialGradient id="a" cx="-261.372%" cy="-190.999%" r="1047.53%" fx="-261.372%" fy="-190.999%" gradientTransform="matrix(.9745 0 0 1 -.067 0)"><stop offset="0%" stop-color="#00B8E9"/><stop offset="42.7%" stop-color="#009ACA"/><stop offset="50.77%" stop-color="#0090BD"/><stop offset="83.47%" stop-color="#006D8E"/><stop offset="100%" stop-color="#00607E"/></radialGradient><radialGradient id="b" cx="-146.201%" cy="-185.985%" r="374.116%" fx="-146.201%" fy="-185.985%" gradientTransform="matrix(.35416 0 0 1 -.944 0)"><stop offset="0%" stop-color="#00B8E9"/><stop offset="42.7%" stop-color="#009ACA"/><stop offset="50.77%" stop-color="#0090BD"/><stop offset="83.47%" stop-color="#006D8E"/><stop offset="100%" stop-color="#00607E"/></radialGradient><radialGradient id="c" cx="46.507%" cy="-191.362%" r="390.868%" fx="46.507%" fy="-191.362%" gradientTransform="matrix(.36317 0 0 1 .296 0)"><stop offset="0%" stop-color="#00B8E9"/><stop offset="42.7%" stop-color="#009ACA"/><stop offset="50.77%" stop-color="#0090BD"/><stop offset="83.47%" stop-color="#006D8E"/><stop offset="100%" stop-color="#00607E"/></radialGradient><radialGradient id="d" cx="-194.49%" cy="-191.362%" r="1247.05%" fx="-194.49%" fy="-191.362%" gradientTransform="matrix(1 0 0 .86305 0 -.262)"><stop offset="0%" stop-color="#00B8E9"/><stop offset="42.7%" stop-color="#009ACA"/><stop offset="50.77%" stop-color="#0090BD"/><stop offset="83.47%" stop-color="#006D8E"/><stop offset="100%" stop-color="#00607E"/></radialGradient><radialGradient id="e" cx="-1326.329%" cy="-191.353%" r="3741.207%" fx="-1326.329%" fy="-191.353%" gradientTransform="matrix(1 0 0 .28768 0 -1.363)"><stop offset="0%" stop-color="#00B8E9"/><stop offset="42.7%" stop-color="#009ACA"/><stop offset="50.77%" stop-color="#0090BD"/><stop offset="83.47%" stop-color="#006D8E"/><stop offset="100%" stop-color="#00607E"/></radialGradient><radialGradient id="f" cx="-363.372%" cy="-360.59%" r="1047.508%" fx="-363.372%" fy="-360.59%" gradientTransform="matrix(.9745 0 0 1 -.093 0)"><stop offset="0%" stop-color="#00B8E9"/><stop offset="42.7%" stop-color="#009ACA"/><stop offset="50.77%" stop-color="#0090BD"/><stop offset="83.47%" stop-color="#006D8E"/><stop offset="100%" stop-color="#00607E"/></radialGradient><radialGradient id="g" cx="-26.915%" cy="-353.939%" r="374.125%" fx="-26.915%" fy="-353.939%" gradientTransform="matrix(.3546 0 0 1 -.174 0)"><stop offset="0%" stop-color="#00B8E9"/><stop offset="42.7%" stop-color="#009ACA"/><stop offset="50.77%" stop-color="#0090BD"/><stop offset="83.47%" stop-color="#006D8E"/><stop offset="100%" stop-color="#00607E"/></radialGradient><radialGradient id="h" cx="-618.883%" cy="-362.954%" r="1138.624%" fx="-618.883%" fy="-362.954%" gradientTransform="matrix(1 0 0 .94505 0 -.2)"><stop offset="0%" stop-color="#00B8E9"/><stop offset="42.7%" stop-color="#009ACA"/><stop offset="50.77%" stop-color="#0090BD"/><stop offset="83.47%" stop-color="#006D8E"/><stop offset="100%" stop-color="#00607E"/></radialGradient><radialGradient id="i" cx="-565.919%" cy="-361.183%" r="1247.095%" fx="-565.919%" fy="-361.183%" gradientTransform="matrix(1 0 0 .86305 0 -.495)"><stop offset="0%" stop-color="#00B8E9"/><stop offset="42.7%" stop-color="#009ACA"/><stop offset="50.77%" stop-color="#0090BD"/><stop offset="83.47%" stop-color="#006D8E"/><stop offset="100%" stop-color="#00607E"/></radialGradient><radialGradient id="j" cx="-723.23%" cy="-362.954%" r="1138.596%" fx="-723.23%" fy="-362.954%" gradientTransform="matrix(1 0 0 .94505 0 -.2)"><stop offset="0%" stop-color="#00B8E9"/><stop offset="42.7%" stop-color="#009ACA"/><stop offset="50.77%" stop-color="#0090BD"/><stop offset="83.47%" stop-color="#006D8E"/><stop offset="100%" stop-color="#00607E"/></radialGradient></defs><g fill="none"><path fill="url(#a)" d="M4.822 6.209V5.044s-.127-.932-1.142-.932H2.03v2.097H.38V.033h4.188S6.726-.2 6.726 1.898c0 1.048-1.015 1.398-1.015 1.398s.888.35.888 1.398V6.21H4.822M2.03 2.597h1.777c.508 0 .888-.233.888-.583s-.38-.582-.888-.582H2.03v1.165" transform="translate(24.276 .897)"/><path fill="url(#b)" d="M15.691 6.717l-2.665-4.195v4.195H9.6l-.635-1.282H5.793l-.635 1.282H2.62S.336 6.367.336 3.804C.336.308 3.001.54 3.001.424h2.157v1.399H3.382s-1.142 0-1.27 1.398v.466c0 2.097 2.031 1.398 2.031 1.398L6.3.425h2.412l2.538 5.593V.425h2.41l2.666 4.078V.425h1.776V6.6h-2.41M6.553 3.92h1.65l-.761-1.864-.889 1.864" transform="translate(33.711 .39)"/><path fill="url(#c)" d="M15.482 6.209V1.898l-2.157 4.311h-1.396L9.77 1.898v4.311H6.345l-.634-1.282H2.538L1.904 6.21H0L2.792.033h2.411l2.665 5.71V.033h2.665l1.903 3.846L14.34.033h2.665V6.21h-1.523M3.426 3.413h1.65l-.888-1.865-.762 1.865" transform="translate(.165 .897)"/><path fill="url(#d)" d="M.508 6.209V.033h5.33v1.515h-3.68v.932H5.71v1.4H2.157v1.048h3.68V6.21H.507" transform="translate(17.93 .897)"/><path fill="url(#e)" d="M.463 6.209V.033H2.24V6.21H.463" transform="translate(31.173 .897)"/><path fill="url(#f)" d="M5.076 6.209V5.044s-.127-.932-1.142-.932h-1.65v2.097H.508V.033h4.187S6.853-.2 6.853 1.898c0 1.048-1.016 1.398-1.016 1.398s.762.35.762 1.398V6.21H5.076M2.284 2.713h1.777c.507 0 .888-.233.888-.582 0-.35-.38-.583-.888-.583H2.284v1.165" transform="translate(30.62 11.384)"/><path fill="url(#g)" d="M11.421 6.209H9.898L8.122 4.345 6.345 6.209H0V.033h6.218l1.904 1.981 2.03-1.98h5.458s2.157-.234 2.157 1.864c0 1.864-.761 2.447-2.919 2.447h-1.65v1.98h-1.776M9.391 3.18l2.157 2.213v-4.31L9.391 3.18M1.65 4.927h3.553l1.65-1.747-1.65-1.748H1.65v.932h3.553v1.398H1.65v1.165m11.548-2.33h1.776c.508 0 .889-.233.889-.583s-.381-.582-.889-.582h-1.776v1.165" transform="translate(12.855 11.384)"/><path fill="url(#h)" d="M3.509 6.209H.463V4.811h2.665s1.015.116 1.015-.466c0-.583-1.396-.466-1.396-.466s-2.41.233-2.41-1.865C.336.034 2.492.15 2.492.15h3.3v1.398H3.128s-.888-.116-.888.466c0 .466 1.269.466 1.269.466s2.665-.233 2.665 1.632c0 1.98-1.65 2.214-2.285 2.214-.254-.117-.38-.117-.38-.117" transform="translate(43.863 11.384)"/><path fill="url(#i)" d="M0 6.209V.033h5.33v1.515H1.777v.932H5.33v1.4H1.777v1.048H5.33V6.21H0" transform="translate(38.235 11.384)"/><path fill="url(#j)" d="M3.255 6.209H.209V4.811h2.665s1.015.116 1.015-.466c0-.583-1.396-.466-1.396-.466s-2.41.233-2.41-1.865C.082.034 2.24.15 2.24.15h3.299v1.398H2.874s-.888-.116-.888.466c0 .466 1.269.466 1.269.466S5.92 2.247 5.92 4.112c0 1.98-1.65 2.214-2.285 2.214-.253-.117-.38-.117-.38-.117" transform="translate(50.208 11.384)"/></g></svg>