<svg xmlns="http://www.w3.org/2000/svg" width="48" height="27" viewBox="0 0 48 27"><g fill="none" fill-rule="evenodd"><path fill="#FFF" d="M21 8h-1V1h-9v10.724a5.676 5.676 0 0 1-1 1.466V1H1v23h8v2.104L0 26V0h21v8zM0 26h2v1H0v-1zm8.5-15a.5.5 0 0 1 .5.5v1a.5.5 0 1 1-1 0v-1a.5.5 0 0 1 .5-.5z"/><path stroke="#FFF" d="M42.5 26.5h3v-6.024l.333-.118A2.501 2.501 0 1 0 42.5 18v8.5zm-31 0h3V18a2.5 2.5 0 1 0-3.333 2.358l.333.118V26.5zm4-5v3h26v-3h-26zm-.996-7.061c1.557.807 1.952 1.748 1.985 5.058h10.563L27.5 15a4.5 4.5 0 0 0-4.5-4.5h-5.99a2.5 2.5 0 0 0-2.5 2.498c0 .552-.002 1.032-.006 1.44zm15.445 5.058h10.613c.038-3.164.466-4.26 1.934-5.054-.004-.41-.006-.89-.007-1.445a2.5 2.5 0 0 0-2.5-2.498H34a4.5 4.5 0 0 0-4.5 4.5v4.497h.449z"/></g></svg>